<svg width="30" height="36" fill="none" xmlns="http://www.w3.org/2000/svg"><path d="M27.183 25.378c-.674-.463-3.978-2.709-4.606-3.036-.627-.335-1.098-.526-1.658.137-.568.663-2.136 2.128-2.616 2.548-.48.432-.906.434-1.576-.025-.67-.462-2.889-1.541-5.322-4.395-1.89-2.221-3.04-4.795-3.376-5.582-.32-.784.102-1.127.502-1.443.367-.283.818-.743 1.23-1.125.415-.374.57-.67.869-1.12.3-.46.234-.891.097-1.28S9.597 5.89 9.174 4.352c-.417-1.537-1.042-1.373-1.463-1.43-.414-.056-.885-.188-1.364-.253-.475-.064-1.274.016-2.02.648-.747.646-2.812 2.165-3.25 5.74-.438 3.575 1.7 7.387 1.998 7.919.302.54 3.97 8.745 10.894 12.646 6.93 3.91 7.05 2.938 8.377 2.987 1.329.06 4.456-1.179 5.259-2.799.815-1.62.992-3.076.848-3.406-.144-.323-.601-.566-1.27-1.026z" fill="#BCAC95"/></svg>