<svg width="23" height="30" fill="none" xmlns="http://www.w3.org/2000/svg"><path fill-rule="evenodd" clip-rule="evenodd" d="M12.867 29.53a2.223 2.223 0 01-2.734 0c-.34-.262-.896-.728-1.597-1.376a34.873 34.873 0 01-3.392-3.616C1.951 20.598 0 16.39 0 12 0 5.373 5.149 0 11.5 0S23 5.373 23 12c0 4.39-1.95 8.599-5.144 12.538a34.872 34.872 0 01-3.392 3.616 25.185 25.185 0 01-1.597 1.376zM11.501 15.6c-1.906 0-3.45-1.612-3.45-3.6s1.544-3.6 3.45-3.6c1.905 0 3.45 1.612 3.45 3.6s-1.545 3.6-3.45 3.6z" fill="#BCAC95"/></svg>