<svg width="13" height="16" fill="none" xmlns="http://www.w3.org/2000/svg"><path fill-rule="evenodd" clip-rule="evenodd" d="M7.077 15.75a1.253 1.253 0 01-1.504 0c-.187-.14-.493-.389-.878-.735a18.834 18.834 0 01-1.866-1.928C1.073 10.987 0 8.741 0 6.4 0 2.865 2.832 0 6.325 0c3.493 0 6.325 2.865 6.325 6.4 0 2.341-1.073 4.586-2.83 6.687a18.835 18.835 0 01-1.865 1.928c-.386.346-.691.594-.878.734zm-.752-7.43A1.909 1.909 0 014.427 6.4c0-1.06.85-1.92 1.898-1.92s1.897.86 1.897 1.92-.85 1.92-1.897 1.92z" fill="#BCAC95"/></svg>