<svg width="17" height="18" fill="none" xmlns="http://www.w3.org/2000/svg"><path fill-rule="evenodd" clip-rule="evenodd" d="M15.876 17.557c.249.266.647.29.92.049a.653.653 0 00.05-.895l-3.011-3.237a7.714 7.714 0 002.39-6.09c-.25-3.938-3.536-7.128-7.568-7.37C3.654-.275-.478 3.834.045 8.739c.398 3.648 3.41 6.572 7.168 6.959a8.14 8.14 0 005.626-1.402l3.037 3.262zm-.946-9.665c0 3.624-3.037 6.596-6.796 6.596-3.758 0-6.82-2.947-6.795-6.596 0-3.625 3.062-6.597 6.795-6.597 3.734 0 6.796 2.948 6.796 6.597z" fill="#BCAC95"/></svg>