<svg width="133" height="14" fill="none" xmlns="http://www.w3.org/2000/svg"><path fill-rule="evenodd" clip-rule="evenodd" d="M0 7c0-1.067.187-2.03.56-2.89A6.733 6.733 0 012.082 1.9 6.628 6.628 0 014.324.49 7.555 7.555 0 017.046 0c.761 0 1.438.073 2.032.22a9.607 9.607 0 011.532.5c.493.213.92.447 1.28.7l-2.1 3.7a7.074 7.074 0 00-.7-.46 6.724 6.724 0 00-.812-.31c-.313-.1-.67-.15-1.07-.15a2.901 2.901 0 00-2.052.82 2.75 2.75 0 00-.6 3.07c.153.34.363.637.63.89s.58.453.94.6c.36.147.755.22 1.182.22.427 0 .807-.053 1.14-.16.334-.107.615-.227.841-.36.267-.147.5-.32.701-.52l2.102 3.7c-.36.293-.787.553-1.281.78-.427.187-.941.36-1.542.52-.6.16-1.287.24-2.062.24-1.04 0-2.001-.17-2.882-.51a6.797 6.797 0 01-2.282-1.43A6.491 6.491 0 01.54 9.85C.18 8.99 0 8.04 0 7zM12.591.32h3.524l3.483 5.12L23.06.32h3.523v13.34H22.32v-4.8l-2.722 4-2.743-4v4.8h-4.264V.32zm19.358 0h3.203l5.064 13.34h-4.203l-.44-1.2h-4.044l-.44 1.2h-4.205L31.95.32zm2.502 9.2l-.9-2.34-.902 2.34h1.802zM50.906 5.4c0 .92-.16 1.704-.48 2.35a4.196 4.196 0 01-1.312 1.57c-.553.4-1.2.694-1.941.88a9.754 9.754 0 01-2.393.28v3.18h-4.263V.32h4.263c.855 0 1.652.094 2.393.28.74.187 1.387.48 1.941.88s.991.924 1.312 1.57c.32.647.48 1.43.48 2.35zm-6.125 1.48h.18c.56 0 .964-.13 1.21-.39.248-.26.371-.623.371-1.09 0-.467-.123-.83-.37-1.09-.247-.26-.65-.39-1.211-.39h-.18v2.96zm8.888-3.06h-2.463V.32h9.329v3.5h-2.462v9.84h-4.404V3.82zM76.428 7c0 1.04-.18 1.99-.54 2.85a6.48 6.48 0 01-1.502 2.21 6.797 6.797 0 01-2.282 1.43c-.88.34-1.842.51-2.883.51a9.32 9.32 0 01-1.681-.14 8.005 8.005 0 01-1.371-.37 6.575 6.575 0 01-1.832-1.03l2.102-3.7c.36.347.777.607 1.251.78.474.173.951.26 1.431.26.508 0 .975-.107 1.402-.32.427-.213.774-.5 1.04-.86H67.94V5.3h3.584a2.982 2.982 0 00-.991-.8c-.394-.2-.831-.3-1.312-.3-.493 0-.957.087-1.39.26a5.284 5.284 0 00-1.192.66l-2.102-3.7c.214-.16.474-.323.781-.49.307-.167.66-.32 1.061-.46.4-.14.85-.253 1.351-.34A9.67 9.67 0 0169.382 0c.96 0 1.868.163 2.722.49a6.628 6.628 0 012.242 1.41 6.737 6.737 0 011.522 2.21c.373.86.56 1.823.56 2.89zM77.53.32h4.264v4.54h2.382V.32h4.284v13.34h-4.284V8.72h-2.382v4.94H77.53V.32zm12.331 0h7.867v3.5h-3.603V5.3h3.543v3.32h-3.543v1.54h3.743v3.5h-8.007V.32zM109.46 5.4c0 .92-.16 1.704-.481 2.35a4.192 4.192 0 01-1.311 1.57c-.554.4-1.201.694-1.942.88a9.76 9.76 0 01-2.392.28v3.18H99.07V.32h4.264c.854 0 1.652.094 2.392.28.741.187 1.388.48 1.942.88s.991.924 1.311 1.57c.321.647.481 1.43.481 2.35zm-6.126 1.48h.18c.561 0 .965-.13 1.212-.39.246-.26.37-.623.37-1.09 0-.467-.124-.83-.37-1.09-.247-.26-.651-.39-1.212-.39h-.18v2.96zM110.46.32h8.127v3.5h-3.683v9.84h-4.444V.32zM118.987 7c0-.96.184-1.867.551-2.72a7.059 7.059 0 011.501-2.23 7.07 7.07 0 012.232-1.5 6.83 6.83 0 012.723-.55c.96 0 1.868.183 2.722.55a7.07 7.07 0 012.232 1.5 7.059 7.059 0 011.501 2.23A6.81 6.81 0 01133 7a6.81 6.81 0 01-.551 2.72 7.059 7.059 0 01-1.501 2.23 7.072 7.072 0 01-2.232 1.5 6.828 6.828 0 01-2.722.55 6.83 6.83 0 01-2.723-.55 7.072 7.072 0 01-2.232-1.5 7.059 7.059 0 01-1.501-2.23 6.812 6.812 0 01-.551-2.72zm4.204 0c0 .387.074.75.22 1.09a2.828 2.828 0 001.492 1.49c.34.147.704.22 1.091.22s.75-.073 1.091-.22a2.827 2.827 0 001.491-1.49c.147-.34.22-.703.22-1.09 0-.386-.073-.75-.22-1.09a2.828 2.828 0 00-1.491-1.49 2.73 2.73 0 00-1.091-.22c-.387 0-.751.074-1.091.22a2.82 2.82 0 00-1.492 1.49c-.146.34-.22.704-.22 1.09z" fill="#1C1C1C"/></svg>