<svg width="125" height="14" fill="none" xmlns="http://www.w3.org/2000/svg"><path fill-rule="evenodd" clip-rule="evenodd" d="M0 7c0-1.067.18-2.03.54-2.89A6.75 6.75 0 012.003 1.9 6.35 6.35 0 014.16.49 7.029 7.029 0 016.781 0c.733 0 1.384.073 1.956.22a9 9 0 011.474.5c.475.213.886.447 1.233.7L9.42 5.12a6.79 6.79 0 00-.674-.46 6.326 6.326 0 00-.78-.31 3.28 3.28 0 00-1.031-.15 2.7 2.7 0 00-1.099.22 2.756 2.756 0 00-1.464 1.49c-.141.34-.212.703-.212 1.09 0 .387.074.75.222 1.09a2.808 2.808 0 001.512 1.49c.347.147.726.22 1.137.22.41 0 .777-.053 1.098-.16.321-.107.59-.227.81-.36.256-.147.48-.32.673-.52l2.023 3.7a5.695 5.695 0 01-1.233.78c-.41.187-.905.36-1.483.52-.578.16-1.24.24-1.984.24-1.002 0-1.927-.17-2.775-.51a6.512 6.512 0 01-2.196-1.43A6.508 6.508 0 01.52 9.85C.173 8.99 0 8.04 0 7zM12.118.32h3.39l3.353 5.12L22.194.32h3.39v13.34h-4.103v-4.8l-2.62 4-2.64-4v4.8h-4.103V.32zm18.63 0h3.082l4.874 13.34H34.66l-.424-1.2h-3.892l-.424 1.2h-4.045L30.748.32zm2.408 9.2l-.867-2.34-.867 2.34h1.734zM48.992 5.4c0 .92-.154 1.703-.462 2.35a4.163 4.163 0 01-1.262 1.57 5.32 5.32 0 01-1.869.88c-.713.187-1.48.28-2.302.28v3.18h-4.104V.32h4.104c.822 0 1.59.093 2.302.28a5.31 5.31 0 011.869.88c.533.4.953.923 1.262 1.57.308.646.462 1.43.462 2.35zm-5.895 1.48h.173c.54 0 .928-.13 1.166-.39.237-.26.356-.623.356-1.09 0-.467-.119-.83-.356-1.09-.238-.26-.626-.39-1.166-.39h-.173v2.96zm8.554-3.06h-2.37V.32h8.978v3.5h-2.37v9.84h-4.238V3.82zM70.556 7c0 1.04-.174 1.99-.52 2.85a6.508 6.508 0 01-1.445 2.21 6.512 6.512 0 01-2.197 1.43c-.847.34-1.772.51-2.774.51a8.67 8.67 0 01-1.618-.14 7.475 7.475 0 01-1.32-.37 6.227 6.227 0 01-1.763-1.03l2.023-3.7a3.38 3.38 0 001.204.78c.456.173.915.26 1.378.26.488 0 .937-.107 1.348-.32.411-.213.745-.5 1.002-.86h-3.487V5.3h3.449a2.893 2.893 0 00-.954-.8c-.379-.2-.8-.3-1.262-.3-.475 0-.921.087-1.339.26-.417.173-.8.393-1.146.66l-2.023-3.7c.206-.16.456-.323.751-.49a6.83 6.83 0 011.021-.46c.386-.14.82-.253 1.3-.34a8.999 8.999 0 011.59-.13 7.02 7.02 0 012.62.49 6.35 6.35 0 012.158 1.41 6.75 6.75 0 011.464 2.21c.36.86.54 1.823.54 2.89zm1.06-6.68h4.103v4.54h2.292V.32h4.123v13.34h-4.123V8.72H75.72v4.94h-4.104V.32zm11.867 0h7.571v3.5h-3.468V5.3h3.41v3.32h-3.41v1.54h3.603v3.5h-7.706V.32zm18.861 5.08c0 .92-.154 1.703-.463 2.35a4.158 4.158 0 01-1.261 1.57c-.534.4-1.156.693-1.87.88-.712.187-1.48.28-2.302.28v3.18h-4.103V.32h4.103c.823 0 1.59.093 2.303.28.713.186 1.335.48 1.869.88.533.4.953.923 1.261 1.57.309.646.463 1.43.463 2.35zm-5.895 1.48h.173c.54 0 .928-.13 1.165-.39.238-.26.357-.623.357-1.09 0-.467-.119-.83-.357-1.09-.237-.26-.626-.39-1.165-.39h-.174v2.96zm6.858-6.56h7.822v3.5h-3.545v9.84h-4.277V.32zM111.514 7c0-.96.177-1.867.53-2.72a7.081 7.081 0 011.445-2.23 6.793 6.793 0 012.148-1.5 6.358 6.358 0 012.62-.55c.925 0 1.798.183 2.62.55a6.793 6.793 0 012.148 1.5 7.081 7.081 0 011.445 2.23c.353.853.53 1.76.53 2.72 0 .96-.177 1.867-.53 2.72a7.081 7.081 0 01-1.445 2.23 6.794 6.794 0 01-2.148 1.5 6.357 6.357 0 01-2.62.55 6.357 6.357 0 01-2.62-.55 6.794 6.794 0 01-2.148-1.5 7.081 7.081 0 01-1.445-2.23 7.045 7.045 0 01-.53-2.72zm4.046 0a2.835 2.835 0 00.79 1.98c.244.254.53.454.857.6.328.147.678.22 1.05.22a2.53 2.53 0 001.05-.22c.328-.146.613-.346.857-.6a2.835 2.835 0 00.79-1.98 2.835 2.835 0 00-.79-1.98 2.716 2.716 0 00-.857-.6 2.536 2.536 0 00-1.05-.22c-.372 0-.722.074-1.05.22a2.728 2.728 0 00-.857.6 2.835 2.835 0 00-.79 1.98z" fill="#fff"/></svg>